<svg xmlns="http://www.w3.org/2000/svg" width="24" height="24" fill="currentColor" viewBox="0 0 24 24">
  <path fill-rule="evenodd" d="M12 1.8A8.2 8.2 0 0 0 3.8 10c0 3.178 2.063 6.233 4.28 8.575A29.628 29.628 0 0 0 12 22.02a29.625 29.625 0 0 0 3.92-3.446c2.217-2.342 4.28-5.397 4.28-8.575A8.2 8.2 0 0 0 12 1.8ZM12 23l-.444.665-.003-.001-.006-.005-.022-.015a16.249 16.249 0 0 1-.38-.267 31.221 31.221 0 0 1-4.226-3.702C4.637 17.267 2.2 13.822 2.2 10a9.8 9.8 0 0 1 19.6 0c0 3.822-2.436 7.267-4.718 9.675a31.223 31.223 0 0 1-4.226 3.702 19.095 19.095 0 0 1-.38.267l-.022.015-.006.005h-.002c0 .001-.001.002-.445-.664Zm0 0 .444.666a.8.8 0 0 1-.888 0L12 23Z" clip-rule="evenodd"/>
  <path fill-rule="evenodd" d="M12 7.8a2.2 2.2 0 1 0 0 4.4 2.2 2.2 0 0 0 0-4.4ZM8.2 10a3.8 3.8 0 1 1 7.6 0 3.8 3.8 0 0 1-7.6 0Z" clip-rule="evenodd"/>
</svg>
