<svg width="24" height="24" viewBox="0 0 24 24" fill="none" xmlns="http://www.w3.org/2000/svg">
<path fill-rule="evenodd" clip-rule="evenodd" d="M14.2 12C14.2 10.4536 15.4536 9.20001 17 9.20001H21C22.5463 9.20001 23.8 10.4536 23.8 12C23.8 13.5464 22.5463 14.8 21 14.8H17C15.4536 14.8 14.2 13.5464 14.2 12ZM17 10.8C16.3372 10.8 15.8 11.3373 15.8 12C15.8 12.6628 16.3372 13.2 17 13.2H21C21.6627 13.2 22.2 12.6628 22.2 12C22.2 11.3373 21.6627 10.8 21 10.8H17Z" fill="black"/>
<path fill-rule="evenodd" clip-rule="evenodd" d="M3.99995 3.20001C2.45355 3.20001 1.19995 4.45361 1.19995 6.00001V18C1.19995 19.5464 2.45355 20.8 3.99995 20.8H20C21.5463 20.8 22.7999 19.5464 22.7999 18V12.8728C22.5034 13.4832 21.9057 13.9201 21.2 13.9901V18C21.2 18.6628 20.6627 19.2 20 19.2H3.99995C3.33721 19.2 2.79995 18.6628 2.79995 18V6.00001C2.79995 5.33727 3.33721 4.80001 3.99995 4.80001H20C20.6627 4.80001 21.2 5.33727 21.2 6.00001V10.0099C21.9057 10.08 22.5034 10.5168 22.7999 11.1272V6.00001C22.7999 4.45361 21.5463 3.20001 20 3.20001H3.99995Z" fill="black"/>
</svg>
